<?xml version="1.0" encoding="UTF-8" standalone="no"?>
<svg
   width="66.929001"
   height="94.822998"
   viewBox="0 0 66.929001 94.822998"
   fill="none"
   version="1.1"
   id="svg8"
   sodipodi:docname="astro.svg"
   inkscape:version="1.1 (c4e8f9ed74, 2021-05-24)"
   xmlns:inkscape="http://www.inkscape.org/namespaces/inkscape"
   xmlns:sodipodi="http://sodipodi.sourceforge.net/DTD/sodipodi-0.dtd"
   xmlns="http://www.w3.org/2000/svg"
   xmlns:svg="http://www.w3.org/2000/svg">
  <defs
     id="defs12" />
  <sodipodi:namedview
     id="namedview10"
     pagecolor="#ffffff"
     bordercolor="#666666"
     borderopacity="1.0"
     inkscape:pageshadow="2"
     inkscape:pageopacity="0.0"
     inkscape:pagecheckerboard="0"
     showgrid="false"
     inkscape:zoom="1.6818182"
     inkscape:cx="129.32432"
     inkscape:cy="71.648649"
     inkscape:window-width="1920"
     inkscape:window-height="1009"
     inkscape:window-x="80"
     inkscape:window-y="2160"
     inkscape:window-maximized="1"
     inkscape:current-layer="svg8" />
  <path
     fill="#fff"
     fill-rule="evenodd"
     d="m 50.119,9.05 16.81,54.865 A 72.6,72.6 0 0 0 46.164,56.931 L 34.857,18.969 A 1.475,1.475 0 0 0 32.03,18.974 L 20.859,56.912 A 72.598,72.598 0 0 0 0,63.907 L 16.896,9.034 c 0.998,-3.243 1.497,-4.865 2.47,-6.066 A 8,8 0 0 1 22.605,0.576 C 24.039,0 25.735,0 29.129,0 h 8.751 c 3.398,0 5.097,0 6.532,0.577 a 8,8 0 0 1 3.241,2.397 c 0.972,1.203 1.47,2.827 2.465,6.076 z"
     clip-rule="evenodd"
     id="path2" />
  <path
     fill="#ff5d01"
     fill-rule="evenodd"
     d="m 49.667,66.613 c -2.863,2.432 -8.578,4.091 -15.161,4.091 -8.08,0 -14.852,-2.499 -16.649,-5.86 -0.642,1.926 -0.786,4.13 -0.786,5.539 0,0 -0.423,6.915 4.418,11.725 0,-2.498 2.037,-4.522 4.551,-4.522 4.309,0 4.304,3.734 4.3,6.764 v 0.27 c 0,4.6 2.829,8.541 6.852,10.203 a 9.22,9.22 0 0 1 -0.938,-4.064 c 0,-4.386 2.592,-6.02 5.604,-7.917 2.396,-1.51 5.06,-3.188 6.894,-6.554 a 12.297,12.297 0 0 0 1.502,-5.905 c 0,-1.314 -0.206,-2.581 -0.587,-3.77 z"
     clip-rule="evenodd"
     class="astro-AGUtxITr"
     id="path4" />
</svg>
