<?xml version="1.0" encoding="UTF-8" standalone="no"?>
<svg
   width="86"
   height="76"
   viewBox="0 0 86 76"
   version="1.1"
   id="svg15"
   sodipodi:docname="eslint.svg"
   inkscape:version="1.1 (c4e8f9ed74, 2021-05-24)"
   xmlns:inkscape="http://www.inkscape.org/namespaces/inkscape"
   xmlns:sodipodi="http://sodipodi.sourceforge.net/DTD/sodipodi-0.dtd"
   xmlns="http://www.w3.org/2000/svg"
   xmlns:svg="http://www.w3.org/2000/svg">
  <sodipodi:namedview
     id="namedview17"
     pagecolor="#ffffff"
     bordercolor="#666666"
     borderopacity="1.0"
     inkscape:pageshadow="2"
     inkscape:pageopacity="0.0"
     inkscape:pagecheckerboard="0"
     showgrid="false"
     inkscape:zoom="2.7583942"
     inkscape:cx="176.18947"
     inkscape:cy="22.295581"
     inkscape:window-width="1920"
     inkscape:window-height="1009"
     inkscape:window-x="80"
     inkscape:window-y="2160"
     inkscape:window-maximized="1"
     inkscape:current-layer="Logos" />
  <!-- Generator: Sketch 46.2 (44496) - http://www.bohemiancoding.com/sketch -->
  <title
     id="title2">eslint</title>
  <desc
     id="desc4">Created with Sketch.</desc>
  <defs
     id="defs6" />
  <g
     id="Logos"
     transform="translate(-30,-1819)"
     style="fill:none;fill-rule:evenodd;stroke:none;stroke-width:1">
    <g
       id="eslint"
       transform="translate(30,1819)">
      <path
         d="m 25.673575,27.758675 16.652678,-9.578828 c 0.416729,-0.239796 0.930421,-0.239796 1.34715,0 l 16.653022,9.578828 C 60.74281,27.998471 61,28.441409 61,28.921001 v 19.157655 c 0,0.47925 -0.25719,0.922531 -0.673575,1.162669 l -16.653022,9.578828 c -0.416729,0.239796 -0.930421,0.239796 -1.34715,0 L 25.673575,49.241325 C 25.256846,49.001529 25,48.558249 25,48.078656 V 28.921001 c 3.44e-4,-0.479592 0.257189,-0.92253 0.673575,-1.162326"
         id="Shape"
         fill="#8080f2"
         fill-rule="nonzero" />
      <path
         d="M 85.46811,36.302554 65.952305,2.1459822 C 65.2434,0.91098214 63.933847,0 62.516374,0 H 23.48409 C 22.066279,0 20.756389,0.91098214 20.047484,2.1459822 L 0.53167896,36.227232 c -0.70890528,1.23534 -0.70890528,2.794357 0,4.029697 L 20.047484,74.133589 C 20.756389,75.368589 22.066279,76 23.48409,76 h 39.031947 c 1.417473,0 2.727363,-0.612411 3.435931,-1.84775 L 85.467773,40.220286 c 0.70958,-1.234661 0.70958,-2.682732 3.37e-4,-3.917732 z M 69.30797,52.727375 c 0,0.502143 -0.300492,0.966625 -0.733188,1.218036 l -24.8589,14.428803 c -0.432358,0.251072 -0.973986,0.251072 -1.406344,0 L 17.431414,53.945411 C 16.999056,53.694 16.696541,53.229857 16.696541,52.727375 V 23.869429 c 0,-0.502483 0.298131,-0.966625 0.730826,-1.218036 L 42.285256,8.2225893 c 0.432358,-0.2514107 0.973311,-0.2514107 1.405669,0 l 24.87981,14.4288037 c 0.432696,0.251411 0.737235,0.715553 0.737235,1.218036 z"
         id="path9"
         fill="#4b32c3"
         fill-rule="nonzero" />
    </g>
  </g>
</svg>
