<?xml version="1.0" encoding="UTF-8" standalone="no"?>
<svg
   width="92"
   height="92"
   viewBox="0 0 92 92"
   version="1.1"
   id="svg18"
   sodipodi:docname="git.svg"
   inkscape:version="1.1 (c4e8f9ed74, 2021-05-24)"
   xmlns:inkscape="http://www.inkscape.org/namespaces/inkscape"
   xmlns:sodipodi="http://sodipodi.sourceforge.net/DTD/sodipodi-0.dtd"
   xmlns="http://www.w3.org/2000/svg"
   xmlns:svg="http://www.w3.org/2000/svg">
  <sodipodi:namedview
     id="namedview20"
     pagecolor="#ffffff"
     bordercolor="#666666"
     borderopacity="1.0"
     inkscape:pageshadow="2"
     inkscape:pageopacity="0.0"
     inkscape:pagecheckerboard="0"
     showgrid="false"
     inkscape:zoom="5.5753425"
     inkscape:cx="109.58968"
     inkscape:cy="46.006143"
     inkscape:window-width="1920"
     inkscape:window-height="1009"
     inkscape:window-x="80"
     inkscape:window-y="2160"
     inkscape:window-maximized="1"
     inkscape:current-layer="git" />
  <!-- Generator: Sketch 46.2 (44496) - http://www.bohemiancoding.com/sketch -->
  <title
     id="title2">git</title>
  <desc
     id="desc4">Created with Sketch.</desc>
  <defs
     id="defs6" />
  <g
     id="Page-1"
     stroke="none"
     stroke-width="1"
     fill="none"
     fill-rule="evenodd">
    <g
       id="git"
       style="fill-rule:nonzero">
      <path
         d="M 90.264775,41.9016 50.096177,1.7352586 c -2.311615,-2.31367814 -6.063699,-2.31367814 -8.378342,0 l -8.340993,8.3411534 10.580937,10.58114 c 2.458993,-0.830784 5.278356,-0.273563 7.238686,1.686805 1.969415,1.972481 2.522587,4.816125 1.671631,7.283241 l 10.19735,10.197546 c 2.467069,-0.849963 5.313686,-0.299809 7.284111,1.673682 2.753749,2.752792 2.753749,7.214598 0,9.969409 -2.754759,2.754812 -7.216478,2.754812 -9.972246,0 -2.071369,-2.073427 -2.583154,-5.115934 -1.534347,-7.667844 l -9.509923,-9.510106 -0.001,25.026487 c 0.671277,0.333122 1.305205,0.776274 1.864434,1.333495 2.753749,2.752792 2.753749,7.214597 0,9.971428 -2.754759,2.753802 -7.218497,2.753802 -9.969218,0 -2.753749,-2.756831 -2.753749,-7.218636 0,-9.971428 0.680362,-0.679366 1.467724,-1.19318 2.307577,-1.538415 V 33.85218 c -0.839853,-0.343216 -1.626205,-0.854001 -2.307577,-1.538414 -2.08651,-2.083522 -2.588201,-5.145208 -1.519205,-7.707213 L 29.27852,14.174812 1.7359824,41.715859 c -2.31464319,2.315698 -2.31464319,6.067854 0,8.381532 l 40.1685986,40.16735 c 2.312624,2.313679 6.063699,2.313679 8.379351,0 l 39.980843,-39.9806 c 2.313633,-2.314688 2.313633,-6.068863 0,-8.382541"
         id="path13"
         fill="#de4c36" />
    </g>
  </g>
</svg>
