<?xml version="1.0" encoding="UTF-8" standalone="no"?>
<svg
   width="66.637779"
   height="39.684891"
   viewBox="0 0 120.27307 89.291004"
   version="1.1"
   style="shape-rendering:auto"
   id="svg4"
   sodipodi:docname="next.svg"
   inkscape:version="1.1 (c4e8f9ed74, 2021-05-24)"
   xmlns:inkscape="http://www.inkscape.org/namespaces/inkscape"
   xmlns:sodipodi="http://sodipodi.sourceforge.net/DTD/sodipodi-0.dtd"
   xmlns="http://www.w3.org/2000/svg"
   xmlns:svg="http://www.w3.org/2000/svg">
  <defs
     id="defs8" />
  <sodipodi:namedview
     id="namedview6"
     pagecolor="#ffffff"
     bordercolor="#666666"
     borderopacity="1.0"
     inkscape:pageshadow="2"
     inkscape:pageopacity="0.0"
     inkscape:pagecheckerboard="0"
     showgrid="false"
     inkscape:zoom="7.445122"
     inkscape:cx="10.275184"
     inkscape:cy="21.289107"
     inkscape:window-width="1920"
     inkscape:window-height="1009"
     inkscape:window-x="80"
     inkscape:window-y="2160"
     inkscape:window-maximized="1"
     inkscape:current-layer="svg4"
     width="65.63778px" />
  <path
     d="m 21.097,23.288 h 27.855 v 2.219 H 23.651 v 16.699 h 23.792 v 2.219 H 23.651 v 18.334 h 25.591 v 2.219 H 21.097 Z m 30.35,0 h 2.96 L 67.522,41.622 80.927,23.288 99.16,0 69.205,43.549 84.641,64.978 H 81.565 L 67.522,45.476 53.421,64.978 H 50.403 L 65.955,43.549 51.448,23.288 Z m 34.297,2.219 v -2.219 h 31.742 v 2.219 h -14.623 v 39.47 h -2.554 V 25.507 H 85.745 Z M -13.75,23.288 h 3.192 L 33.453,89.291 15.265,64.978 -11.081,26.441 -11.197,64.978 h -2.553 z m 130.98,38.801 c -0.523,0 -0.914,-0.405 -0.914,-0.928 0,-0.524 0.391,-0.929 0.913,-0.929 0.528,0 0.913,0.405 0.913,0.929 0,0.523 -0.385,0.928 -0.913,0.928 z m 2.508,-2.443 h 1.367 c 0.019,0.742 0.56,1.24 1.354,1.24 0.888,0 1.391,-0.535 1.391,-1.539 v -6.356 h 1.391 v 6.362 c 0,1.808 -1.043,2.849 -2.77,2.849 -1.62,0 -2.732,-1.01 -2.732,-2.556 z m 7.322,-0.08 h 1.379 c 0.118,0.853 0.95,1.395 2.149,1.395 1.117,0 1.937,-0.58 1.937,-1.377 0,-0.685 -0.521,-1.097 -1.708,-1.377 l -1.155,-0.28 c -1.62,-0.38 -2.36,-1.166 -2.36,-2.487 0,-1.602 1.304,-2.668 3.26,-2.668 1.82,0 3.15,1.066 3.23,2.58 h -1.354 c -0.13,-0.828 -0.85,-1.346 -1.894,-1.346 -1.1,0 -1.832,0.53 -1.832,1.34 0,0.642 0.472,1.01 1.64,1.284 l 0.987,0.243 c 1.838,0.43 2.596,1.178 2.596,2.53 0,1.72 -1.33,2.799 -3.453,2.799 -1.987,0 -3.323,-1.029 -3.422,-2.637 z"
     fill="#ffffff"
     fill-rule="nonzero"
     id="path2" />
</svg>
