<?xml version="1.0" encoding="UTF-8" standalone="no"?>
<svg
   width="67"
   height="64"
   viewBox="0 0 67 64"
   version="1.1"
   id="svg26"
   sodipodi:docname="redux.svg"
   inkscape:version="1.1 (c4e8f9ed74, 2021-05-24)"
   xmlns:inkscape="http://www.inkscape.org/namespaces/inkscape"
   xmlns:sodipodi="http://sodipodi.sourceforge.net/DTD/sodipodi-0.dtd"
   xmlns="http://www.w3.org/2000/svg"
   xmlns:svg="http://www.w3.org/2000/svg">
  <sodipodi:namedview
     id="namedview28"
     pagecolor="#ffffff"
     bordercolor="#666666"
     borderopacity="1.0"
     inkscape:pageshadow="2"
     inkscape:pageopacity="0.0"
     inkscape:pagecheckerboard="0"
     showgrid="false"
     inkscape:zoom="4.9836735"
     inkscape:cx="154.70516"
     inkscape:cy="32.004505"
     inkscape:window-width="1920"
     inkscape:window-height="1009"
     inkscape:window-x="80"
     inkscape:window-y="2160"
     inkscape:window-maximized="1"
     inkscape:current-layer="Logos" />
  <!-- Generator: Sketch 46.2 (44496) - http://www.bohemiancoding.com/sketch -->
  <title
     id="title2">redux</title>
  <desc
     id="desc4">Created with Sketch.</desc>
  <defs
     id="defs6" />
  <g
     id="Page-1"
     stroke="none"
     stroke-width="1"
     fill="none"
     fill-rule="evenodd">
    <g
       id="Logos"
       transform="translate(-31,-33)">
      <g
         id="redux-logo-figure"
         fill="#764abc"
         transform="translate(31,33)">
        <path
           d="m 35.355746,22.801391 c 1.250568,0.01759 2.364419,0.06702 3.092049,0.13024 3.131926,0.272124 6.062032,0.892341 8.520796,1.742309 3.756758,1.29867 7.254415,3.221524 10.492969,5.768561 2.736648,2.430074 4.590899,4.417885 5.562754,5.963432 0.577133,0.917819 1.593333,2.3747 2.365934,4.281185 0.215117,0.530828 0.539513,1.299291 0.835233,2.315607 0.125698,0.43199 0.307634,1.180357 0.54581,2.2451 0.14235,1.354939 0.217993,2.314933 0.226931,2.879983 0.01861,1.176903 -0.112497,2.149125 -0.226931,2.849081 -0.125291,0.766359 -0.320223,1.711196 -0.746657,2.772265 -0.162365,0.404004 -0.482003,1.047699 -0.958915,1.931087 -1.360937,1.964816 -2.851496,3.516715 -4.471679,4.655695 -1.620183,1.13898 -3.690751,2.098792 -6.211704,2.879438 -2.152931,0.687553 -4.783908,0.883983 -7.892931,0.589293 -1.407344,-0.133396 -3.028205,-0.51034 -4.432009,-0.927461 -0.928612,-0.275925 -2.249226,-0.795364 -3.961844,-1.558318 l 3.817621,-3.051679 c 0.957932,0.394524 1.660426,0.661498 2.107484,0.80092 1.157817,0.361087 2.221279,0.549395 2.947934,0.677752 0.650511,0.114907 1.430935,0.208848 2.352892,0.246228 0.469601,0.01904 1.255166,0.01904 2.356696,0 1.10313,-0.169633 1.88029,-0.314163 2.331481,-0.433591 1.181055,-0.312621 2.057169,-0.729405 2.725241,-1.085992 0.631123,-0.336864 1.412964,-0.802074 2.177803,-1.493904 0.339145,-0.306772 0.849487,-0.861827 1.531026,-1.665166 0.877062,-1.277895 1.449643,-2.207497 1.717745,-2.788803 0.456969,-0.990816 0.626381,-2.007389 0.745243,-2.69795 0.139938,-0.813003 0.289132,-1.898134 0.117596,-3.208033 -0.06826,-0.521252 -0.281135,-1.383756 -0.638625,-2.587512 -0.572328,-1.72849 -1.219648,-3.133392 -1.941959,-4.214705 -1.083467,-1.621969 -1.863839,-2.61421 -2.553196,-3.41052 -0.768396,-0.887613 -1.973039,-2.018944 -3.508198,-3.164945 -0.622092,-0.464394 -1.679258,-1.170544 -3.171497,-2.11845 -1.439889,-0.799723 -2.54694,-1.366384 -3.321154,-1.699983 -1.854483,-0.799076 -3.928594,-1.444402 -5.139105,-1.73306 -1.230481,-0.29342 -3.256763,-0.656605 -5.35669,-0.788625 -0.546322,-0.03435 -1.479198,-0.141456 -2.411472,-0.131111 -0.330673,0.0037 -0.816437,0.03412 -1.457292,0.09134 -0.725905,1.704318 -2.414791,2.898993 -4.382395,2.898993 -2.629981,0 -4.762001,-2.134419 -4.762001,-4.767358 0,-2.632939 2.13202,-4.767357 4.762001,-4.767357 1.840714,0 3.437499,1.045555 4.230123,2.575802 0.897694,-0.0058 1.558658,-0.0058 1.982892,2.09e-4 z"
           id="Combined-Shape" />
        <path
           d="m 45.167065,46.735374 c -0.640756,1.075448 -1.24068,2.016441 -1.659352,2.615686 -1.802083,2.579317 -3.804456,4.809609 -5.769889,6.516373 -3.002996,2.607772 -6.416556,4.678812 -10.24068,6.21312 -3.47185,1.157635 -6.119593,1.771364 -7.943228,1.841189 -1.08296,0.04146 -2.852045,0.194069 -4.888367,-0.08933 C 14.09857,63.753506 13.271281,63.650525 12.243845,63.398757 11.807127,63.291741 11.068488,63.075296 10.027926,62.749423 8.7841616,62.195371 7.9155478,61.780957 7.4220846,61.506181 6.3942838,60.933869 5.6185072,60.334083 5.0700065,59.88489 4.4694717,59.393084 3.7493169,58.751659 3.044372,57.851406 2.7759635,57.508634 2.3787939,56.90966 1.8528632,56.054483 0.83325526,53.892144 0.23582344,51.82388 0.06056775,49.849691 -0.11468795,47.875503 0.09038946,45.600415 0.67579999,43.024427 1.1576887,40.81406 2.3037116,38.434789 4.1138686,35.886612 4.9332623,34.733143 6.0702227,33.516329 7.1333811,32.507792 7.8366564,31.840648 8.946749,30.955395 10.463659,29.852033 l 0.731343,4.835716 c -0.820577,0.633265 -1.4030031,1.108841 -1.7472774,1.426728 -0.8916232,0.823284 -1.5865281,1.651151 -2.0610807,2.216982 -0.4248256,0.50654 -0.896489,1.136197 -1.3900006,1.916843 -0.2513713,0.397624 -0.6443107,1.078709 -1.1788183,2.043254 -0.4049855,1.04123 -0.6686445,1.787293 -0.790977,2.238189 -0.3202224,1.180285 -0.3977701,2.148268 -0.4233504,2.90578 -0.024166,0.715615 -0.012651,1.626076 0.2034857,2.635106 0.095839,0.447425 0.3209098,1.167419 0.6752114,2.159982 0.6671824,1.39936 1.185252,2.360589 1.554209,2.883686 0.6288738,0.891601 1.4238745,1.546767 1.9620297,1.995102 0.6335742,0.527827 1.498017,1.199744 2.7174026,1.705972 0.485234,0.201444 1.338123,0.448134 2.558668,0.740068 1.782109,0.368037 3.321697,0.509262 4.618763,0.423675 1.945598,-0.128381 3.194624,-0.308843 4.228564,-0.50836 1.15249,-0.222393 2.734103,-0.701152 4.493736,-1.459134 0.713055,-0.307156 1.85295,-0.870643 3.419684,-1.690461 1.41231,-0.848522 2.456443,-1.525005 3.132401,-2.029448 1.61913,-1.208299 3.215064,-2.683889 4.070365,-3.589072 0.869411,-0.920117 2.197256,-2.495311 3.361889,-4.249936 0.302994,-0.456488 0.86231,-1.211737 1.319681,-2.02519 0.162227,-0.288528 0.378856,-0.72491 0.649888,-1.309144 -1.111815,-1.481518 -1.300904,-3.54312 -0.31671,-5.249032 1.315516,-2.280192 4.229073,-3.061444 6.507613,-1.744974 2.278539,1.31647 3.059224,4.23214 1.743709,6.512333 -0.920724,1.595898 -2.624258,2.457533 -4.345,2.379614 -0.443983,0.781214 -0.774657,1.354235 -0.992022,1.719062 z"
           id="path9" />
        <path
           d="m 18.154399,41.938311 c -0.591078,-1.103113 -1.088032,-2.101992 -1.385641,-2.769506 -1.280992,-2.873169 -2.159925,-5.738386 -2.609513,-8.302393 -0.686929,-3.91756 -0.702755,-7.910831 -0.04748,-11.979813 0.796461,-3.572993 1.634351,-6.159315 2.513668,-7.758968 C 17.147615,10.177682 17.927945,8.5821859 19.2193,6.9820161 19.578856,6.5364763 20.09308,5.880123 20.837801,5.1287537 21.154349,4.8093801 21.720096,4.2874575 22.535042,3.562986 23.650051,2.7817512 24.452279,2.2503034 24.941724,1.9686425 25.961157,1.3819902 26.874334,1.0255846 27.541498,0.7865283 28.271953,0.52479367 29.192148,0.23751949 30.326179,0.09654308 30.757962,0.04286617 31.475473,0.01068514 32.478712,0 c 2.376964,0.2389885 4.455951,0.79154405 6.236961,1.6576667 1.781009,0.8661226 3.623859,2.2132842 5.528549,4.0414847 1.644871,1.551196 3.092388,3.7588239 4.342553,6.6228836 0.565905,1.296458 1.022523,2.897831 1.338773,4.328691 0.209198,0.946509 0.395693,2.354142 0.559485,4.222899 L 45.966951,19.011088 C 45.847175,17.981439 45.739809,17.237182 45.64485,16.778317 45.398922,15.589918 45.047766,14.567839 44.80755,13.869612 44.592505,13.24455 44.296139,12.51594 43.881712,11.690861 43.670623,11.270604 43.289672,10.58302 42.738859,9.6281081 42.055672,8.7447766 41.552496,8.1345924 41.229331,7.7975552 40.383402,6.9153134 39.594326,6.3504591 38.958741,5.9385246 38.35831,5.5493735 37.572632,5.090502 36.597163,4.7563387 36.164619,4.6081639 35.432089,4.4304696 34.399571,4.223256 32.857536,4.0748901 31.767519,4.0242344 31.12952,4.0712888 c -1.087446,0.080203 -2.057953,0.4245799 -2.719055,0.6552072 -0.778319,0.2715193 -1.798932,0.6668169 -2.860429,1.4517698 -0.422404,0.3123588 -1.072889,0.9166751 -1.951454,1.812949 -1.232931,1.3386158 -2.146722,2.5860502 -2.741371,3.7423032 -0.891975,1.734379 -1.380632,2.898285 -1.742207,3.887572 -0.403033,1.102719 -0.80749,2.705383 -1.064488,4.60445 -0.104143,0.769557 -0.208566,2.037085 -0.313268,3.802583 -5.95e-4,1.647863 0.04107,2.891455 0.124993,3.730775 0.201023,2.010432 0.642908,4.138588 0.977682,5.338007 0.340297,1.219207 1.005544,3.168765 1.908511,5.070756 0.234918,0.494827 0.593707,1.363256 1.054842,2.174237 0.163563,0.287651 0.425736,0.698071 0.786521,1.231261 1.84137,-0.190593 3.704367,0.708673 4.658534,2.430863 1.27538,2.301952 0.444075,5.202449 -1.85677,6.478441 -2.300846,1.275993 -5.199949,0.444289 -6.475328,-1.857663 -0.892634,-1.611127 -0.753298,-3.515455 0.199565,-4.950816 -0.440419,-0.782903 -0.760886,-1.361461 -0.961399,-1.735673 z"
           id="path11" />
      </g>
    </g>
  </g>
</svg>
