<?xml version="1.0" encoding="UTF-8" standalone="no"?>
<svg
   viewBox="0 0 51.033001 30.436001"
   version="1.1"
   id="svg6"
   sodipodi:docname="tailwindcss.svg"
   width="51.033001"
   height="30.436001"
   inkscape:version="1.1 (c4e8f9ed74, 2021-05-24)"
   xmlns:inkscape="http://www.inkscape.org/namespaces/inkscape"
   xmlns:sodipodi="http://sodipodi.sourceforge.net/DTD/sodipodi-0.dtd"
   xmlns="http://www.w3.org/2000/svg"
   xmlns:svg="http://www.w3.org/2000/svg">
  <defs
     id="defs10" />
  <sodipodi:namedview
     id="namedview8"
     pagecolor="#ffffff"
     bordercolor="#666666"
     borderopacity="1.0"
     inkscape:pageshadow="2"
     inkscape:pageopacity="0.0"
     inkscape:pagecheckerboard="0"
     showgrid="false"
     inkscape:zoom="4.9233871"
     inkscape:cx="124"
     inkscape:cy="15.538084"
     inkscape:window-width="1920"
     inkscape:window-height="1009"
     inkscape:window-x="80"
     inkscape:window-y="2160"
     inkscape:window-maximized="1"
     inkscape:current-layer="svg6" />
  <path
     fill-rule="evenodd"
     clip-rule="evenodd"
     d="M 25.517,0 C 18.712,0 14.46,3.382 12.758,10.146 c 2.552,-3.382 5.529,-4.65 8.931,-3.805 1.941,0.482 3.329,1.882 4.864,3.432 2.502,2.524 5.398,5.445 11.722,5.445 6.804,0 11.057,-3.382 12.758,-10.145 -2.551,3.382 -5.528,4.65 -8.93,3.804 C 40.161,8.395 38.773,6.995 37.238,5.446 34.736,2.92 31.841,0 25.517,0 Z M 12.758,15.218 C 5.954,15.218 1.701,18.6 0,25.364 c 2.552,-3.382 5.529,-4.65 8.93,-3.805 1.942,0.482 3.33,1.882 4.865,3.432 2.502,2.524 5.397,5.445 11.722,5.445 6.804,0 11.057,-3.381 12.758,-10.145 -2.552,3.382 -5.529,4.65 -8.931,3.805 C 27.403,23.613 26.015,22.213 24.48,20.664 21.978,18.14 19.082,15.218 12.758,15.218 Z"
     fill="#06b6d4"
     id="path2" />
</svg>
