<svg
   version="1.1"
   id="svg2959"
   xmlns="http://www.w3.org/2000/svg"
   xmlns:svg="http://www.w3.org/2000/svg"
   fill="#fff"
   viewBox="0 0 234 234">
  <g
     id="g2965"
     transform="matrix(3.7795276,0,0,3.7795276,-63.533982,-678.3792)">
    <path
       style="stroke-width:0.264583"
       d="M 43.365557,241.08595 C 18.179289,237.41823 7.8972462,206.5495 25.873984,188.57276 c 18.072593,-18.0726 48.923173,-7.64849 52.534313,17.75083 2.84487,20.00969 -14.97299,37.68499 -35.04274,34.76236 z m 11.23946,-6.73701 c 4.771591,-1.49677 7.6429,-4.60483 9.63606,-10.43056 2.35161,-6.87348 8.45695,-26.77299 8.45695,-26.77299 l -7.42252,0.20459 c 0,0 -1.31873,4.93717 -2.73394,10.45925 -2.42231,9.45176 -3.02156,10.26442 -3.02156,10.26442 0,0 -1.20139,-4.63564 -2.53275,-10.16441 -1.33135,-5.52878 -2.55156,-10.51534 -2.55156,-10.51534 l -7.76622,-0.13229 c 0,0 2.02513,6.81854 4.49791,14.74809 2.47278,7.92955 4.49597,14.54501 4.49597,14.70102 0,0.89335 -2.364181,2.31632 -4.7878,2.88171 -1.071594,0.24999 -2.162578,0.41964 -2.162578,0.41964 l 0.496346,2.56296 0.560455,2.80114 c 0,0 2.27549,-0.22428 4.835237,-1.02723 z m -13.1729,-10.16308 c 1.83537,-0.57123 4.500138,-2.48992 4.500138,-2.48992 l -3.144096,-4.44616 c 0,0 -0.923232,0.37469 -1.678672,0.76663 -5.43113,2.81777 -9.111757,-0.13883 -9.1215,-7.3272 -0.01062,-7.83431 3.532276,-10.84649 9.32235,-7.92593 0.834018,0.42069 1.355894,0.84473 1.355894,0.84473 l 3.44965,-4.18563 c 0,0 0.07182,-0.14841 -1.631184,-1.30046 -6.97318,-4.71726 -16.964621,-1.29996 -19.539391,6.68292 -3.987755,12.36373 5.01806,22.95049 16.486801,19.38102 z"
       id="path717" />
  </g>
</svg>
 
