<?xml version="1.0" encoding="UTF-8" standalone="no"?>
<svg
   fill="none"
   viewBox="0 0 32.99926 30"
   version="1.1"
   id="svg8"
   sodipodi:docname="workflow-logo.svg"
   inkscape:version="1.1 (c4e8f9ed74, 2021-05-24)"
   width="32.99926"
   height="30"
   xmlns:inkscape="http://www.inkscape.org/namespaces/inkscape"
   xmlns:sodipodi="http://sodipodi.sourceforge.net/DTD/sodipodi-0.dtd"
   xmlns="http://www.w3.org/2000/svg"
   xmlns:svg="http://www.w3.org/2000/svg">
  <defs
     id="defs12" />
  <sodipodi:namedview
     id="namedview10"
     pagecolor="#ffffff"
     bordercolor="#666666"
     borderopacity="1.0"
     inkscape:pageshadow="2"
     inkscape:pageopacity="0.0"
     inkscape:pagecheckerboard="0"
     showgrid="false"
     inkscape:zoom="8.5384615"
     inkscape:cx="43.157658"
     inkscape:cy="14.932432"
     inkscape:window-width="1920"
     inkscape:window-height="1009"
     inkscape:window-x="80"
     inkscape:window-y="2160"
     inkscape:window-maximized="1"
     inkscape:current-layer="svg8"
     fit-margin-top="0"
     fit-margin-left="0"
     fit-margin-right="0"
     fit-margin-bottom="0" />
  <path
     fill="#6366f1"
     d="m 14.257261,25.865001 a 4.043,4.043 0 0 1 -1.133,2.917 4.006,4.006 0 0 1 -2.872,1.218 3.992,3.992 0 0 1 -2.8720005,-1.218 4.028,4.028 0 0 1 -1.133,-2.917 c 0.009,-0.698 0.2,-1.382 0.557,-1.981 0.356,-0.6 0.863,-1.094 1.47,-1.433 -0.024,0.109 0.09,-0.055 0,0 l 1.8600005,-1.652 a 8.495,8.495 0 0 0 2.304,-5.793 c 0,-2.926 -1.711,-5.9010004 -4.1700005,-7.4570004 0.094,0.055 -0.036,-0.094 0,0 a 3.952,3.952 0 0 1 -1.469,-1.433 3.975,3.975 0 0 1 -0.557,-1.98 4.042,4.042 0 0 1 1.133,-2.918 A 4.006,4.006 0 0 1 10.246261,5.7176086e-7 3.99,3.99 0 0 1 13.118261,1.2180006 a 4.025,4.025 0 0 1 1.133,2.917 8.521,8.521 0 0 0 2.347,5.832 l 0.817,0.8000004 c 0.326,0.285 0.668,0.551 1.024,0.798 0.621,0.33 1.142,0.826 1.504,1.431 a 3.902,3.902 0 0 1 -1.504,5.442 c 0.033,-0.067 -0.063,0.036 0,0 a 8.968,8.968 0 0 0 -3.024,3.183 9.016,9.016 0 0 0 -1.158,4.244 z m 4.483,-21.7420004 c 0,0.796 0.235,1.575 0.676,2.237 a 4.01,4.01 0 0 0 1.798,1.482 3.99,3.99 0 0 0 4.366,-0.873 4.042,4.042 0 0 0 0.869,-4.386 4.02,4.02 0 0 0 -1.476,-1.80600003 3.994,3.994 0 0 0 -5.058,0.50100003 4.038,4.038 0 0 0 -1.175,2.845 z m 4.007,17.7170004 c -0.792,0 -1.567,0.236 -2.226,0.678 a 4.021,4.021 0 0 0 -1.476,1.806 4.042,4.042 0 0 0 0.869,4.387 3.99,3.99 0 0 0 4.366,0.873 4.01,4.01 0 0 0 1.799,-1.484 4.039,4.039 0 0 0 -0.5,-5.082 4,4 0 0 0 -2.832,-1.18 z m 10.252,-6.846 c 0,-0.796 -0.235,-1.574 -0.675,-2.236 a 4.01,4.01 0 0 0 -1.798,-1.483 3.99,3.99 0 0 0 -4.367,0.873 4.042,4.042 0 0 0 -0.869,4.387 4.02,4.02 0 0 0 1.476,1.806 3.993,3.993 0 0 0 2.226,0.678 4.003,4.003 0 0 0 2.832,-1.18 4.04,4.04 0 0 0 1.175,-2.846 z"
     id="path2" />
  <path
     fill="#6366f1"
     d="m 4.0062605,10.969001 c -0.793,0 -1.567,0.236 -2.226,0.678 a 4.021,4.021 0 0 0 -1.47599995,1.807 4.042,4.042 0 0 0 0.86899995,4.386 4.001,4.001 0 0 0 4.366,0.873 4.011,4.011 0 0 0 1.798,-1.483 4.038,4.038 0 0 0 -0.5,-5.08 4.004,4.004 0 0 0 -2.831,-1.181 z"
     id="path4" />
</svg>
