<?xml version="1.0" encoding="UTF-8" standalone="no"?>
<svg
   fill="none"
   viewBox="0 0 103.5022 32"
   version="1.1"
   id="svg8"
   sodipodi:docname="workflow-logo-indigo-500-mark-gray-text-ar.svg"
   width="103.5022"
   height="32"
   inkscape:version="1.1 (c4e8f9ed74, 2021-05-24)"
   xmlns:inkscape="http://www.inkscape.org/namespaces/inkscape"
   xmlns:sodipodi="http://sodipodi.sourceforge.net/DTD/sodipodi-0.dtd"
   xmlns="http://www.w3.org/2000/svg"
   xmlns:svg="http://www.w3.org/2000/svg">
  <defs
     id="defs12" />
  <sodipodi:namedview
     id="namedview10"
     pagecolor="#ffffff"
     bordercolor="#666666"
     borderopacity="1.0"
     inkscape:pageshadow="2"
     inkscape:pageopacity="0.0"
     inkscape:pagecheckerboard="0"
     showgrid="false"
     fit-margin-top="1"
     fit-margin-left="1"
     fit-margin-right="1"
     fit-margin-bottom="1"
     inkscape:zoom="8.5384615"
     inkscape:cx="45.851352"
     inkscape:cy="15.986487"
     inkscape:window-width="1920"
     inkscape:window-height="1009"
     inkscape:window-x="80"
     inkscape:window-y="2160"
     inkscape:window-maximized="1"
     inkscape:current-layer="text17564" />
  <path
     fill="#6366f1"
     d="m 83.760198,26.865001 a 4.043,4.043 0 0 1 -1.133,2.917 4.006,4.006 0 0 1 -2.872,1.218 3.992,3.992 0 0 1 -2.872,-1.218 4.028,4.028 0 0 1 -1.133,-2.917 c 0.009,-0.698 0.2,-1.382 0.557,-1.981 0.356,-0.6 0.863,-1.094 1.47,-1.433 -0.024,0.109 0.09,-0.055 0,0 l 1.86,-1.652 a 8.495,8.495 0 0 0 2.304,-5.793 c 0,-2.926 -1.711,-5.901 -4.17,-7.4570004 0.094,0.055 -0.036,-0.094 0,0 a 3.952,3.952 0 0 1 -1.469,-1.433 3.975,3.975 0 0 1 -0.557,-1.98 4.042,4.042 0 0 1 1.133,-2.918 4.006,4.006 0 0 1 2.871,-1.218 3.99,3.99 0 0 1 2.872,1.218 4.025,4.025 0 0 1 1.133,2.917 8.521,8.521 0 0 0 2.347,5.8320004 l 0.817,0.8 c 0.326,0.285 0.668,0.551 1.024,0.798 0.621,0.33 1.142,0.826 1.504,1.431 a 3.902,3.902 0 0 1 -1.504,5.442 c 0.033,-0.067 -0.063,0.036 0,0 a 8.968,8.968 0 0 0 -3.024,3.183 9.016,9.016 0 0 0 -1.158,4.244 z m 4.483,-21.7420004 c 0,0.796 0.235,1.575 0.676,2.237 a 4.01,4.01 0 0 0 1.798,1.482 3.99,3.99 0 0 0 4.366,-0.873 4.042,4.042 0 0 0 0.869,-4.386 4.02,4.02 0 0 0 -1.476,-1.806 3.994,3.994 0 0 0 -5.058,0.501 4.038,4.038 0 0 0 -1.175,2.845 z m 4.007,17.7170004 c -0.792,0 -1.567,0.236 -2.226,0.678 a 4.021,4.021 0 0 0 -1.476,1.806 4.042,4.042 0 0 0 0.869,4.387 3.99,3.99 0 0 0 4.366,0.873 4.01,4.01 0 0 0 1.799,-1.484 4.039,4.039 0 0 0 -0.5,-5.082 4,4 0 0 0 -2.832,-1.18 z m 10.252002,-6.846 c 0,-0.796 -0.235,-1.574 -0.675,-2.236 a 4.01,4.01 0 0 0 -1.798,-1.483 3.99,3.99 0 0 0 -4.367002,0.873 4.042,4.042 0 0 0 -0.869,4.387 4.02,4.02 0 0 0 1.476,1.806 3.993,3.993 0 0 0 2.226,0.678 4.003,4.003 0 0 0 2.832002,-1.18 4.04,4.04 0 0 0 1.175,-2.846 z"
     id="path2" />
  <path
     fill="#6366f1"
     d="m 73.509198,11.969001 c -0.793,0 -1.567,0.236 -2.226,0.678 a 4.021,4.021 0 0 0 -1.476,1.807 4.042,4.042 0 0 0 0.869,4.386 4.001,4.001 0 0 0 4.366,0.873 4.011,4.011 0 0 0 1.798,-1.483 4.038,4.038 0 0 0 -0.5,-5.08 4.004,4.004 0 0 0 -2.831,-1.181 z"
     id="path4" />
  <g
     aria-label="وركفلو"
     id="text17564"
     style="font-size:21.3333px;line-height:1.25;fill:#555555">
    <path
       d="m 60.187409,21.916286 q 0,2.17708 -1.291665,3.395828 -1.291665,1.218748 -3.635411,1.218748 -2.135413,0 -3.833327,-1.093748 l 0.854165,-1.427081 q 1.656248,0.854165 3.020829,0.854165 1.427081,0 2.260413,-0.770832 0.833332,-0.760415 0.833332,-2.072913 V 21.40587 h -2.08333 q -2.27083,0 -3.520828,-1.249998 -1.239581,-1.260414 -1.239581,-3.614577 0,-2.541663 1.604164,-4.010411 1.604164,-1.468747 4.239576,-1.468747 h 2.791663 z m -2.729163,-9.197902 q -1.916663,0 -2.968745,1.010415 -1.041665,1.010415 -1.041665,2.791662 0,3.218745 2.927079,3.218745 h 1.999997 v -7.020822 z"
       style="font-family:'Droid Sans Arabic';-inkscape-font-specification:'Droid Sans Arabic'"
       id="path9" />
    <path
       d="m 48.437422,11.062137 v 10.854149 q 0,2.156247 -0.989581,3.385412 -0.989582,1.229164 -2.812496,1.229164 -1.645831,0 -2.895829,-1.031248 l 0.854166,-1.302081 q 0.895832,0.666665 1.999997,0.666665 0.937498,0 1.48958,-0.781248 0.5625,-0.781249 0.5625,-2.062497 V 11.062137 Z"
       style="font-family:'Droid Sans Arabic';-inkscape-font-specification:'Droid Sans Arabic'"
       id="path11" />
    <path
       d="m 31.29162,21.40587 v -1.666664 h 8.229154 v -3.927077 q 0,-3.093745 -3.927077,-3.093745 h -2.770829 v -1.73958 q 1.010415,-2.156247 3.083328,-4.0729107 2.08333,-1.9270802 4.427076,-2.8645788 l 0.677083,1.6249975 q -2.05208,0.833332 -3.854161,2.3437463 -1.791664,1.5104142 -2.562496,3.0520787 h 0.999999 q 2.729162,0 4.22916,1.135415 1.510414,1.135415 1.510414,3.302078 v 5.90624 z"
       style="font-family:'Droid Sans Arabic';-inkscape-font-specification:'Droid Sans Arabic'"
       id="path13" />
    <path
       d="m 25.864543,6.707977 q 1.114581,0 1.114581,1.1979148 0,1.1874981 -1.114581,1.1874981 -1.104165,0 -1.104165,-1.1874981 0,-1.1979148 1.104165,-1.1979148 z m -7.395822,13.031229 h 3.343745 q -1.104165,-1.239581 -1.104165,-3.218745 0,-2.541662 1.583331,-3.999993 1.593747,-1.458331 4.26041,-1.458331 h 2.791662 v 8.677069 h 2.36458 V 21.40587 H 18.468721 Z m 8.145821,-7.020822 q -1.906247,0 -2.958329,1.010415 -1.052082,0.999999 -1.052082,2.791662 0,3.218745 2.916662,3.218745 h 2.010414 v -7.020822 z"
       style="font-family:'Droid Sans Arabic';-inkscape-font-specification:'Droid Sans Arabic'"
       id="path15" />
    <path
       d="m 11.197902,19.739206 h 2.916662 V 5.1975627 h 1.89583 V 17.697543 q 0,0.937498 0.572916,1.489581 0.583332,0.552082 1.541664,0.552082 h 0.770832 v 1.666664 h -0.489583 q -1.781247,0 -2.395829,-1.218748 v 1.218748 h -4.812492 z"
       style="font-family:'Droid Sans Arabic';-inkscape-font-specification:'Droid Sans Arabic'"
       id="path17" />
    <path
       d="M 9.7604028,19.739206 H 11.624983 V 21.40587 H 9.7604028 v 0.510416 q 0,2.17708 -1.2916646,3.395828 Q 7.1770736,26.530862 4.8333273,26.530862 2.697914,26.530862 1,25.437114 l 0.8541653,-1.427081 q 1.6562474,0.854165 3.0208286,0.854165 1.4270811,0 2.2604131,-0.770832 0.833332,-0.760415 0.833332,-2.072913 V 21.40587 h -2.08333 q -2.2708298,0 -3.5208278,-1.249998 -1.2395814,-1.260414 -1.2395814,-3.614577 0,-2.541663 1.6041641,-4.010411 1.6041642,-1.468747 4.2395767,-1.468747 H 9.7604028 Z M 7.0312405,12.718384 q -1.9166637,0 -2.9687453,1.010415 -1.0416651,1.010415 -1.0416651,2.791662 0,3.218745 2.9270788,3.218745 h 1.9999968 v -7.020822 z"
       style="font-family:'Droid Sans Arabic';-inkscape-font-specification:'Droid Sans Arabic'"
       id="path19" />
  </g>
</svg>
